<svg xmlns="http://www.w3.org/2000/svg" viewBox="0 0 64 64" width="64" height="64">
  <!-- 城市图标 - 清晰黑色线条风格 -->
  <defs>
    <linearGradient id="cityBg" x1="0%" y1="0%" x2="0%" y2="100%">
      <stop offset="0%" style="stop-color:#f5f5f5;stop-opacity:1" />
      <stop offset="100%" style="stop-color:#e8e8e8;stop-opacity:1" />
    </linearGradient>
  </defs>

  <!-- 背景 -->
  <rect width="64" height="64" fill="url(#cityBg)" rx="4"/>

  <!-- 城市建筑群 -->
  <g transform="translate(32, 32)">
    <!-- 左侧建筑 -->
    <rect x="-18" y="-4" width="10" height="16" fill="none" stroke="#2a2a2a" stroke-width="2" rx="1"/>
    <rect x="-16" y="-2" width="2" height="3" fill="#4a4a4a"/>
    <rect x="-12" y="-2" width="2" height="3" fill="#4a4a4a"/>
    <rect x="-16" y="3" width="2" height="3" fill="#4a4a4a"/>
    <rect x="-12" y="3" width="2" height="3" fill="#4a4a4a"/>

    <!-- 中间高楼 -->
    <rect x="-5" y="-12" width="10" height="24" fill="none" stroke="#2a2a2a" stroke-width="2" rx="1"/>
    <rect x="-3" y="-10" width="2" height="3" fill="#4a4a4a"/>
    <rect x="1" y="-10" width="2" height="3" fill="#4a4a4a"/>
    <rect x="-3" y="-5" width="2" height="3" fill="#4a4a4a"/>
    <rect x="1" y="-5" width="2" height="3" fill="#4a4a4a"/>
    <rect x="-3" y="0" width="2" height="3" fill="#4a4a4a"/>
    <rect x="1" y="0" width="2" height="3" fill="#4a4a4a"/>
    <rect x="-3" y="5" width="2" height="3" fill="#4a4a4a"/>
    <rect x="1" y="5" width="2" height="3" fill="#4a4a4a"/>

    <!-- 右侧建筑 -->
    <rect x="8" y="0" width="10" height="12" fill="none" stroke="#2a2a2a" stroke-width="2" rx="1"/>
    <rect x="10" y="2" width="2" height="3" fill="#4a4a4a"/>
    <rect x="14" y="2" width="2" height="3" fill="#4a4a4a"/>
    <rect x="10" y="7" width="2" height="3" fill="#4a4a4a"/>
    <rect x="14" y="7" width="2" height="3" fill="#4a4a4a"/>
  </g>
</svg>