<svg xmlns="http://www.w3.org/2000/svg" viewBox="0 0 64 64" width="64" height="64">
  <!-- Favicon - 基于最终 logo 的简化版 -->
  <defs>
    <linearGradient id="faviconBg" x1="0%" y1="0%" x2="100%" y2="100%">
      <stop offset="0%" style="stop-color:#f7f7f7;stop-opacity:1" />
      <stop offset="100%" style="stop-color:#ebebeb;stop-opacity:1" />
    </linearGradient>
  </defs>

  <!-- 背景 -->
  <rect width="64" height="64" fill="url(#faviconBg)" rx="8"/>

  <g transform="translate(32, 32)">
    <!-- 方块边框 -->
    <rect x="-20" y="-20" width="40" height="40" rx="2"
          fill="none" stroke="#2a2a2a" stroke-width="2.5"/>

    <!-- 简洁网格 -->
    <line x1="-20" y1="-7" x2="20" y2="-7" stroke="#4a4a4a" stroke-width="1.5"/>
    <line x1="-20" y1="7" x2="20" y2="7" stroke="#4a4a4a" stroke-width="1.5"/>
    <line x1="-7" y1="-20" x2="-7" y2="20" stroke="#4a4a4a" stroke-width="1.5"/>
    <line x1="7" y1="-20" x2="7" y2="20" stroke="#4a4a4a" stroke-width="1.5"/>

    <!-- 王冠 -->
    <path d="M -8,-14 L -6,-17 L -4,-14 L -2,-16 L 0,-14 L 2,-16 L 4,-14 L 6,-17 L 8,-14"
          fill="none" stroke="#2a2a2a" stroke-width="2" stroke-linejoin="round" stroke-linecap="round"/>
    <line x1="-8" y1="-14" x2="8" y2="-14" stroke="#2a2a2a" stroke-width="2" stroke-linecap="round"/>

    <!-- 中心 -->
    <circle cx="0" cy="0" r="3" fill="none" stroke="#2a2a2a" stroke-width="2"/>
    <circle cx="0" cy="0" r="1.5" fill="#3a3a3a"/>
  </g>
</svg>