<svg xmlns="http://www.w3.org/2000/svg" viewBox="0 0 64 64" width="64" height="64">
  <!-- 障碍图标 - 清晰黑色线条风格 -->
  <defs>
    <linearGradient id="obstacleBg" x1="0%" y1="0%" x2="0%" y2="100%">
      <stop offset="0%" style="stop-color:#f5f5f5;stop-opacity:1" />
      <stop offset="100%" style="stop-color:#e8e8e8;stop-opacity:1" />
    </linearGradient>
  </defs>

  <!-- 背景 -->
  <rect width="64" height="64" fill="url(#obstacleBg)" rx="4"/>

  <!-- 障碍/墙壁 -->
  <g transform="translate(32, 32)">
    <!-- 砖块墙 -->
    <!-- 第一行 -->
    <rect x="-16" y="-12" width="10" height="6" fill="none" stroke="#2a2a2a" stroke-width="2" rx="1"/>
    <rect x="-4" y="-12" width="10" height="6" fill="none" stroke="#2a2a2a" stroke-width="2" rx="1"/>
    <rect x="8" y="-12" width="8" height="6" fill="none" stroke="#2a2a2a" stroke-width="2" rx="1"/>

    <!-- 第二行 -->
    <rect x="-18" y="-6" width="8" height="6" fill="none" stroke="#2a2a2a" stroke-width="2" rx="1"/>
    <rect x="-8" y="-6" width="10" height="6" fill="none" stroke="#2a2a2a" stroke-width="2" rx="1"/>
    <rect x="4" y="-6" width="10" height="6" fill="none" stroke="#2a2a2a" stroke-width="2" rx="1"/>
    <rect x="16" y="-6" width="2" height="6" fill="none" stroke="#2a2a2a" stroke-width="2" rx="1"/>

    <!-- 第三行 -->
    <rect x="-16" y="0" width="10" height="6" fill="none" stroke="#2a2a2a" stroke-width="2" rx="1"/>
    <rect x="-4" y="0" width="10" height="6" fill="none" stroke="#2a2a2a" stroke-width="2" rx="1"/>
    <rect x="8" y="0" width="8" height="6" fill="none" stroke="#2a2a2a" stroke-width="2" rx="1"/>

    <!-- 第四行 -->
    <rect x="-18" y="6" width="8" height="6" fill="none" stroke="#2a2a2a" stroke-width="2" rx="1"/>
    <rect x="-8" y="6" width="10" height="6" fill="none" stroke="#2a2a2a" stroke-width="2" rx="1"/>
    <rect x="4" y="6" width="10" height="6" fill="none" stroke="#2a2a2a" stroke-width="2" rx="1"/>
    <rect x="16" y="6" width="2" height="6" fill="none" stroke="#2a2a2a" stroke-width="2" rx="1"/>

    <!-- 裂纹细节 -->
    <line x1="-16" y1="-9" x2="-12" y2="-9" stroke="#4a4a4a" stroke-width="1" opacity="0.4"/>
    <line x1="10" y1="3" x2="14" y2="3" stroke="#4a4a4a" stroke-width="1" opacity="0.4"/>
  </g>
</svg>