<svg xmlns="http://www.w3.org/2000/svg" viewBox="0 0 64 64" width="64" height="64">
  <!-- 沼泽图标 - 清晰黑色线条风格 -->
  <defs>
    <linearGradient id="swampBg" x1="0%" y1="0%" x2="0%" y2="100%">
      <stop offset="0%" style="stop-color:#f5f5f5;stop-opacity:1" />
      <stop offset="100%" style="stop-color:#e8e8e8;stop-opacity:1" />
    </linearGradient>
  </defs>

  <!-- 背景 -->
  <rect width="64" height="64" fill="url(#swampBg)" rx="4"/>

  <!-- 沼泽 -->
  <g transform="translate(32, 32)">
    <!-- 水面波纹 -->
    <path d="M -18,0 Q -15,-3 -12,0 T -6,0 T 0,0 T 6,0 T 12,0 T 18,0"
          fill="none" stroke="#3a3a3a" stroke-width="2" stroke-linecap="round"/>
    <path d="M -18,6 Q -15,3 -12,6 T -6,6 T 0,6 T 6,6 T 12,6 T 18,6"
          fill="none" stroke="#3a3a3a" stroke-width="2" stroke-linecap="round"/>
    <path d="M -18,12 Q -15,9 -12,12 T -6,12 T 0,12 T 6,12 T 12,12 T 18,12"
          fill="none" stroke="#3a3a3a" stroke-width="2" stroke-linecap="round"/>

    <!-- 水草 -->
    <path d="M -10,-8 Q -12,-4 -10,0" fill="none" stroke="#4a4a4a" stroke-width="1.5" stroke-linecap="round"/>
    <path d="M -8,-10 Q -10,-6 -8,-2" fill="none" stroke="#4a4a4a" stroke-width="1.5" stroke-linecap="round"/>

    <path d="M 8,-6 Q 6,-2 8,2" fill="none" stroke="#4a4a4a" stroke-width="1.5" stroke-linecap="round"/>
    <path d="M 10,-8 Q 8,-4 10,0" fill="none" stroke="#4a4a4a" stroke-width="1.5" stroke-linecap="round"/>

    <!-- 气泡 -->
    <circle cx="-4" cy="-6" r="2" fill="none" stroke="#5a5a5a" stroke-width="1.5"/>
    <circle cx="4" cy="-4" r="1.5" fill="none" stroke="#5a5a5a" stroke-width="1"/>
    <circle cx="2" cy="-10" r="1" fill="none" stroke="#5a5a5a" stroke-width="1"/>
  </g>
</svg>